<svg data-icon-name="gas-stove" data-style="line" icon_origin_id="19813" viewBox="0 0 24 24" xmlns="http://www.w3.org/2000/svg" id="gas-stove" class="icon line" width="48" height="48"><path style="fill: none; stroke: rgb(0, 0, 0); stroke-linecap: round; stroke-linejoin: round; stroke-width: 1.5;" d="M15.54,15.54a5,5,0,1,1,0-7.08A5,5,0,0,1,15.54,15.54Zm.21.21L17,17M8.29,15.71,7,17M8.26,8.26,7,7m8.74,1.26L17,7m4,13V4a1,1,0,0,0-1-1H4A1,1,0,0,0,3,4V20a1,1,0,0,0,1,1H20A1,1,0,0,0,21,20Z" id="primary"></path><line style="fill: none; stroke: rgb(0, 0, 0); stroke-linecap: round; stroke-linejoin: round; stroke-width: 2;" y2="12" x2="12.05" y1="12" x1="11.95" id="primary-upstroke"></line></svg>